<svg width="11" height="13" viewBox="0 0 11 13" fill="none" xmlns="http://www.w3.org/2000/svg">
<path d="M0.00688467 7.27625C0.259192 9.1454 0.880615 10.9264 1.94825 12.4964C2.39679 13.155 3.31958 13.1806 3.76346 12.4964C6.12767 8.8532 8.49188 5.20766 10.8561 1.56211C11.1551 1.10294 10.9659 0.388671 10.48 0.133575C9.959 -0.140073 9.36094 0.0176228 9.04088 0.506942C6.67667 4.15481 4.31246 7.80035 1.94825 11.4436C2.55332 11.4436 3.15839 11.4436 3.76346 11.4436C3.53451 11.1073 3.32426 10.7618 3.13269 10.4023C3.03691 10.2238 2.94813 10.0406 2.86169 9.85735C2.85936 9.85271 2.73087 9.55588 2.80563 9.73444C2.76591 9.64168 2.72853 9.5466 2.69349 9.45152C2.54865 9.07351 2.42483 8.68623 2.32204 8.29199C2.27531 8.11111 2.23326 7.93022 2.19588 7.74934C2.17486 7.64962 2.15617 7.5499 2.13981 7.45018C2.13281 7.41075 2.08141 7.06753 2.10944 7.27625C2.03702 6.73823 1.67725 6.20485 1.05816 6.23268C0.551214 6.25587 -0.0725454 6.69881 0.00688467 7.27625Z" fill="black"/>
</svg>
