<svg xmlns="http://www.w3.org/2000/svg" viewBox="0 0 420.62 314.47"><defs><style>.cls-1{isolation:isolate;}.cls-2,.cls-4{fill:#fff;}.cls-3{fill:#df757b;}.cls-4{font-size:27px;font-family:Poppins-MediumItalic, Poppins;font-weight:500;font-style:italic;}.cls-5,.cls-6{fill:#eca0a4;}.cls-17,.cls-18,.cls-6{mix-blend-mode:multiply;}.cls-7{fill:#343435;}.cls-8{fill:#c0deed;}.cls-9{fill:#3b2314;}.cls-10{fill:#944c52;}.cls-11{fill:#404041;}.cls-12{fill:#231f20;}.cls-13{fill:#1a1a1a;}.cls-14{fill:#e4f5fd;}.cls-15{fill:#b3b3b3;}.cls-16{fill:#4d4d4d;}.cls-17{fill:#2b388f;}.cls-18{fill:#97c5da;}</style></defs><g class="cls-1"><g id="Layer_2" data-name="Layer 2"><g id="OBJECTS"><rect class="cls-2" x="164.59" y="78.12" width="251.05" height="63.58" rx="22.96"/><rect class="cls-3" x="263.43" y="-10.51" width="53.36" height="240.83" rx="17.86" transform="translate(400.01 -180.2) rotate(90)"/><text class="cls-4" transform="translate(179.07 119.05)">Contactez-nous</text><path class="cls-5" d="M300.37,142.2l-7.45,12.87c-3.41,5.86-6.8,11.74-10.27,17.56a46.31,46.31,0,0,1-4.45,6.55,47.48,47.48,0,0,1-8.28,7.06l-.66.46a92.34,92.34,0,0,1-14,8l-83.5,53.63a9.91,9.91,0,0,1-14.53-5.16l-12.69-36V189.43l27.08-3.72,5.31,19.59,1.16,4.24a2.85,2.85,0,0,0,4.18,1.73l55.57-31.83a38.33,38.33,0,0,0,3.7-5.81c2.3-4.35,4.09-9,6.8-13.08A46.52,46.52,0,0,1,256,151.8q2.18-2,4.47-3.79c.78-.64,1.57-1.26,2.36-1.87s1.3-1.29,2.26-1.27c2.87,0,2.21,4.63,1.47,6.3-1,2.35-2.88,4.26-3.93,6.61a16.25,16.25,0,0,0-1,3.08l2.31-1c10-4.37,18.43-11.76,25.54-20,1.08-1.25,2.43-2.66,4.07-2.48a2.55,2.55,0,0,1,1.33.58,3.21,3.21,0,0,1,.76.94l.3-.24a7.2,7.2,0,0,1,2.35-1.39,2.56,2.56,0,0,1,2.55.54C301.93,139,301.17,140.81,300.37,142.2Z"/><path class="cls-6" d="M176.92,205.3c-10.18.69-26.4-1.4-32.39-2.25V189.43l27.08-3.72Z"/><polygon class="cls-5" points="6.35 297.12 3.53 313.84 40.13 313.84 33.82 306.29 33.82 190.69 5.43 190.69 5.54 203.16 6.35 297.12"/><path class="cls-6" d="M33.82,190.69V207c-8.08-.14-20.25-2.24-28.28-3.81l-.11-12.47Z"/><rect x="29.71" y="278.38" width="119.49" height="35.46"/><rect class="cls-7" x="29.71" y="278.38" width="119.49" height="11.19"/><rect x="36.69" y="277.91" width="4.15" height="14.86"/><rect x="66.15" y="277.91" width="4.15" height="14.86"/><rect x="108.6" y="277.91" width="4.15" height="14.86"/><rect x="138.07" y="277.91" width="4.15" height="14.86"/><path class="cls-8" d="M102.22,120.12s41.25,1.06,63.31,30.27a40.26,40.26,0,0,1,6.16,12.11L179.64,197l-35.85,2.46Z"/><path class="cls-8" d="M77.42,120.12s-41.25,1.06-63.32,30.27A40.46,40.46,0,0,0,8,162.5L0,198.84l35.85.66Z"/><path class="cls-8" d="M149.32,259.65l2.73-3.68-2.73-6.12V173.46c0-31.35-24.57-57-54.6-57H84.19c-30,0-54.6,25.64-54.6,57v76.39L26.86,256l2.73,3.68-4.06,9.79,3.91,11.77h120l3.92-11.77Z"/><path class="cls-9" d="M62.84,23.52H52.12V63.77S51.93,82.3,62.84,86.13Z"/><path class="cls-9" d="M116.07,23.52h10.72V63.77S127,82.3,116.07,86.13Z"/><path class="cls-5" d="M105.86,97.34v26.2a16.41,16.41,0,0,1-32.82,0V97.34a16.41,16.41,0,0,1,32.82,0Z"/><path class="cls-6" d="M105.86,97.34v19.11c-15.57.07-26.75-4.28-32.82-7.45V97.34a16.41,16.41,0,0,1,32.82,0Z"/><path class="cls-5" d="M120.32,34.52V81.09a28.24,28.24,0,0,1-28.15,28.16H86.74A28.24,28.24,0,0,1,58.59,81.09V34.52A28.23,28.23,0,0,1,86.74,6.37h5.43A28.23,28.23,0,0,1,120.32,34.52Z"/><path class="cls-6" d="M120.32,34.52V47.41c-35.77,6.76-53.57-2.24-61.73-9.55V34.52A28.23,28.23,0,0,1,86.74,6.37h5.43A28.23,28.23,0,0,1,120.32,34.52Z"/><path class="cls-9" d="M126.79,22.65c0-11.57-16.72-20.95-37.34-20.95s-37.33,9.38-37.33,21c0,3.87,1.87,7.48,5.13,10.59v9l1.12,19.85h1.81A2.77,2.77,0,0,0,63,59.39V46.78a13.32,13.32,0,0,0,4.13-7.33,58.43,58.43,0,0,0,22.31,4.16,58.44,58.44,0,0,0,22.32-4.16,13.32,13.32,0,0,0,4.13,7.33V59.39a2.77,2.77,0,0,0,2.83,2.69h1.81l1.12-19.85v-9C124.92,30.13,126.79,26.52,126.79,22.65Z"/><path class="cls-2" d="M75.38,77.84a14.2,14.2,0,0,0,28.15,0Z"/><path class="cls-3" d="M92.18,72.33H86.73a2.09,2.09,0,0,1-2.09-2.08h0a2.09,2.09,0,0,1,2.09-2.08h5.45a2.08,2.08,0,0,1,2.08,2.08h0A2.08,2.08,0,0,1,92.18,72.33Z"/><path class="cls-10" d="M79.19,59.8a.66.66,0,0,1-.45-.18,5.77,5.77,0,0,0-8.16,0,.62.62,0,0,1-.88-.88,7,7,0,0,1,9.93,0,.63.63,0,0,1,0,.88A.64.64,0,0,1,79.19,59.8Z"/><path class="cls-9" d="M80.43,52.32a1.24,1.24,0,0,1-.88-.36,6.89,6.89,0,0,0-9.77,0A1.25,1.25,0,0,1,68,50.19a9.43,9.43,0,0,1,13.31,0,1.27,1.27,0,0,1,0,1.77A1.28,1.28,0,0,1,80.43,52.32Z"/><path class="cls-10" d="M108.77,59.8a.62.62,0,0,1-.44-.18,5.78,5.78,0,0,0-8.17,0,.62.62,0,0,1-.88-.88,7,7,0,0,1,9.93,0,.63.63,0,0,1,0,.88A.62.62,0,0,1,108.77,59.8Z"/><path class="cls-9" d="M110,52.32a1.28,1.28,0,0,1-.88-.36,6.89,6.89,0,0,0-9.77,0,1.25,1.25,0,1,1-1.77-1.77,9.43,9.43,0,0,1,13.31,0,1.27,1.27,0,0,1,0,1.77A1.28,1.28,0,0,1,110,52.32Z"/><path d="M89.31,100.92H81.56a3.46,3.46,0,0,1-3.45-3.45h0A3.46,3.46,0,0,1,81.56,94h7.75a3.46,3.46,0,0,1,3.45,3.45h0A3.46,3.46,0,0,1,89.31,100.92Z"/><path class="cls-11" d="M79.26,98.57H66.51a12.12,12.12,0,0,1-11.33-7.71l-.06-.22L51.75,71.4A1.15,1.15,0,0,1,54,71l3.35,19.12a9.82,9.82,0,0,0,9.15,6.15H79.26a1.15,1.15,0,0,1,0,2.3Z"/><path d="M58.59,54.11V73.42a1.3,1.3,0,0,1-1.3,1.3h-2.9l-.47,0c-3.77-.37-6.76-5.13-6.76-10.94s3-10.55,6.76-10.92l.47,0h2.9A1.29,1.29,0,0,1,58.59,54.11Z"/><path class="cls-11" d="M58.59,54.11V73.42a1.3,1.3,0,0,1-1.3,1.3h-2.9l-.47,0V52.84l.47,0h2.9A1.29,1.29,0,0,1,58.59,54.11Z"/><path d="M120.32,54.11V73.42a1.3,1.3,0,0,0,1.3,1.3h2.9l.47,0c3.77-.37,6.76-5.13,6.76-10.94s-3-10.55-6.76-10.92l-.47,0h-2.9A1.29,1.29,0,0,0,120.32,54.11Z"/><path class="cls-11" d="M120.32,54.11V73.42a1.3,1.3,0,0,0,1.3,1.3h2.9l.47,0V52.84l-.47,0h-2.9A1.29,1.29,0,0,0,120.32,54.11Z"/><rect class="cls-12" x="88.22" y="141.97" width="2.48" height="139.24"/><path class="cls-13" d="M135.89,157.73v17.85a.47.47,0,0,1-.46.46h-5.05a.45.45,0,0,1-.45-.46V157.73a.45.45,0,0,1,.45-.46h5.05A.47.47,0,0,1,135.89,157.73Z"/><path class="cls-14" d="M111.69,165.48H138.3a0,0,0,0,1,0,0v34.67a3.87,3.87,0,0,1-3.87,3.87H115.56a3.87,3.87,0,0,1-3.87-3.87V165.48A0,0,0,0,1,111.69,165.48Z"/><rect class="cls-2" x="111.69" y="165.48" width="26.61" height="4.36"/><rect class="cls-15" x="130.95" y="161.12" width="3.9" height="14.91"/><path class="cls-16" d="M135.89,157.73v1.84h-6v-1.84a.45.45,0,0,1,.45-.46h5.05A.47.47,0,0,1,135.89,157.73Z"/><path class="cls-6" d="M291.72,142.45a39.09,39.09,0,0,1,3.93-3.59,3.68,3.68,0,0,0-.77-.93,87.47,87.47,0,0,0-6.24,6.35,3.32,3.32,0,0,0-2.59,3.09h0a43.13,43.13,0,0,0-7.17,12.31,123,123,0,0,1,7-10.31,34.79,34.79,0,0,0,.11,5.74s-3.72.26-3.72,6v5.73s-10.38,4.19-11.13,11.38l12.8-6.61,2.13-11.93,4.82-3.64v-9.51l1.32,4.22a12.19,12.19,0,0,0,1.8,2.46l2.36-4.08A7.91,7.91,0,0,0,291.72,142.45Zm-1.6,1.71h0Z"/><path class="cls-5" d="M294.2,158a17.57,17.57,0,0,1-.94,3.66,11.25,11.25,0,0,1-2.63,3.68,34.49,34.49,0,0,1-4.06,3.26h0v0a4.88,4.88,0,0,0-.09-2.7,6.6,6.6,0,0,1-.31-3.33,3.8,3.8,0,0,1,.18-.47c.17-.4.4-.78.58-1.18a10.07,10.07,0,0,0,.49-4.64l-.15-2.82-.21-4a9.5,9.5,0,0,1,.28-3.61,3.23,3.23,0,0,1,2.58-2.3c1.51-.13,2.77,1.17,3.46,2.52C295.25,149.65,294.86,154,294.2,158Z"/><polygon class="cls-10" points="107.75 277.15 89.45 314.47 71.15 277.15 77.16 219.78 77.32 218.27 77.48 216.77 77.64 215.26 83.86 155.91 83.93 155.26 87.82 153.15 89.45 152.26 91.29 153.26 94.98 155.26 95.28 158.15 107.75 277.15"/><polygon class="cls-17" points="97 216.77 97 219.78 77.16 219.78 77.32 218.27 77.48 216.77 97 216.77"/><polygon class="cls-10" points="99.46 137.67 98.03 141.2 96.1 145.93 95.03 148.57 94.41 150.07 84.49 150.07 83.88 148.57 82.77 145.86 80.89 141.2 79.45 137.67 84.73 130.1 94.17 130.1 99.46 137.67"/><polygon class="cls-18" points="84.47 127.11 87.39 130.1 82.77 145.86 81.21 151.2 79.17 144.11 77.16 137.12 84.47 127.11"/><polygon class="cls-18" points="101.7 137.12 99.71 144.05 97.65 151.2 96.1 145.93 91.46 130.1 91.52 130.1 94.41 127.14 101.7 137.12"/><polygon class="cls-14" points="87.39 130.1 80.89 141.2 79.17 144.11 78.3 145.59 67.8 118.83 73.04 115.44 84.47 127.11 87.39 130.1"/><polygon class="cls-14" points="111.11 118.83 100.6 145.59 99.71 144.05 98.03 141.2 91.52 130.1 94.41 127.14 105.86 115.44 111.11 118.83"/><polygon class="cls-15" points="97 215.26 97 218.27 76.32 218.27 76.64 215.26 97 215.26"/><path class="cls-3" d="M244.81,42.38h-6.24V36.14a2.25,2.25,0,1,0-4.5,0v6.24h-6.24a2.25,2.25,0,0,0,0,4.49h6.24v6.24a2.25,2.25,0,1,0,4.5,0V46.87h6.24a2.25,2.25,0,0,0,0-4.49Z"/><path class="cls-3" d="M32.15,95.37H26.3V89.52a2.1,2.1,0,0,0-4.2,0v5.85H16.26a2.1,2.1,0,1,0,0,4.2H22.1v5.85a2.1,2.1,0,0,0,4.2,0V99.57h5.85a2.1,2.1,0,1,0,0-4.2Z"/><path class="cls-3" d="M267.39,34.23h-3.92V30.31a1.41,1.41,0,0,0-2.82,0v3.92h-3.92a1.41,1.41,0,0,0,0,2.82h3.92V41a1.41,1.41,0,1,0,2.82,0V37.05h3.92a1.41,1.41,0,1,0,0-2.82Z"/><path class="cls-3" d="M418.88,149.46H414v-4.83a1.74,1.74,0,1,0-3.47,0v4.83h-4.84a1.74,1.74,0,1,0,0,3.48h4.84v4.83a1.74,1.74,0,1,0,3.47,0v-4.83h4.84a1.74,1.74,0,1,0,0-3.48Z"/><path class="cls-3" d="M41.59,80H37.92V76.29a1.32,1.32,0,1,0-2.64,0V80H31.62a1.33,1.33,0,1,0,0,2.65h3.66v3.66a1.32,1.32,0,1,0,2.64,0V82.6h3.67a1.33,1.33,0,0,0,0-2.65Z"/><path class="cls-3" d="M373.94,60.83h-3.46V57.37a1.25,1.25,0,0,0-2.49,0v3.46h-3.46a1.25,1.25,0,1,0,0,2.49H368v3.47a1.25,1.25,0,0,0,2.49,0V63.32h3.46a1.25,1.25,0,1,0,0-2.49Z"/><path d="M128.51,57.81h-3.45V23.52c0-.66-1-17.52-32.25-20.07H86.1C54.9,6,53.87,22.86,53.84,23.58V57.81H50.4V23.52c0-.89,1-20.72,35.49-23.51H93c34.53,2.79,35.47,22.62,35.49,23.47Z"/><path class="cls-6" d="M290.63,165.31a34.49,34.49,0,0,1-4.06,3.26v0l-.09-2.7-.13-3.8c.17-.4.4-.78.58-1.18a10.07,10.07,0,0,0,.49-4.64l-.15-2.82a8.17,8.17,0,0,1,3.13,4.32A16.07,16.07,0,0,1,290.63,165.31Z"/><path class="cls-5" d="M285.05,155.37a2.78,2.78,0,0,0-1.12,1.32,6.84,6.84,0,0,0-.34,2.7l0,7a1.8,1.8,0,0,1-.21,1.05,1.76,1.76,0,0,1-.61.47c-4.95,2.67-10.12,5.27-13,10.43-1,1.8-1.58,3.81-2.58,5.61-1.5,2.7-3.85,4.81-5.74,7.26a10.5,10.5,0,0,0,3.7-1.79l14.33-9.36c3.32-2.16,6.82-4.55,8.31-8.22a15.64,15.64,0,0,0,.9-3.64c.55-3.68,1.24-8.66-.9-11.95a2.34,2.34,0,0,0-1.88-1.16A1.84,1.84,0,0,0,285.05,155.37Z"/><polygon class="cls-17" points="95.28 158.15 83.86 155.91 83.93 155.26 87.82 153.15 91.29 153.26 94.98 155.26 95.28 158.15"/><polygon class="cls-17" points="95.03 148.57 94.41 150.07 84.49 150.07 83.88 148.57 95.03 148.57"/><polygon class="cls-10" points="95.49 155.43 83.42 155.43 84.01 149.56 94.9 149.56 95.49 155.43"/></g></g></g></svg>