<svg xmlns="http://www.w3.org/2000/svg" viewBox="0 0 372.91 225.91"><defs><style>.cls-1,.cls-2{fill:#fff;}.cls-2{font-size:136.8px;font-family:Gabriola;}</style></defs><g id="Layer_2" data-name="Layer 2"><g id="Capa_1" data-name="Capa 1"><path d="M18.09,96.66c13.36,1.42,26.8,3.56,40.29,4.09,17.37.69,37.06-14.67,42.94-32.29a98.05,98.05,0,0,1,11.59-23.84c5.41-8.07,14.48-7.46,21.76-7.29,44.47,1.06,88.49-5.82,132.74-8.32,26.46-1.49,76.92-2.24,92.95,20.22,10.83,15.16,11.5,70,12,80.14.53,11.44,1.88,23.26-3.18,34.1-6,12.94-23.81,22.78-37.41,21.85-37.15-2.55-74.12-3-111.32,2.23-21.48,3-40.64,1-62.35-2.07-7.65-1.07-18.54-3-28-5.32-15.36-3.71-18.86-13.48-25.4-24.51-15-25.26-36.73-30.93-62.58-27.19-10.25,1.48-20.63,3.24-30.95-.8C1.7,124-.57,115.86.11,108.64.87,100.65,10.11,95.91,18.09,96.66Z"/><circle class="cls-1" cx="18.25" cy="113.13" r="7.15"/><path class="cls-1" d="M291,40.17s33.62-5.35,49.67,4.58A40.64,40.64,0,0,1,359,71.5S350.94,38.64,291,40.17Z"/><path class="cls-1" d="M365.84,141.8S362.4,181.34,316,176.18C316,176.18,354.37,175,365.84,141.8Z"/><path class="cls-1" d="M111.39,154.4s3.44,21.21,24.07,22.35A37.93,37.93,0,0,1,111.39,154.4Z"/><path class="cls-1" d="M32.59,103.69s37.25,6.51,52.63-4.11c13-9,19.1-22,26.55-43,5.07-14.3,16.09-15,23.4-14.23,0,0-15-.86-20.34,15.57-9.5,29.17-18.15,36.67-28.28,43.36C79.23,106.13,54.27,111,32.59,103.69Z"/><text class="cls-2" transform="translate(113.63 131.82)">menu</text><rect class="cls-1" x="126.65" y="143.9" width="19" height="1"/><rect class="cls-1" x="126.65" y="153.9" width="19" height="1"/><rect class="cls-1" x="126.65" y="147.9" width="19" height="1"/><rect class="cls-1" x="315.65" y="143.9" width="19" height="1"/><rect class="cls-1" x="315.65" y="147.9" width="19" height="1"/><rect class="cls-1" x="315.65" y="153.9" width="19" height="1"/><path d="M277.06,220c3.4,2.85,7,5.7,11.64,5.85,21.09.7,41.84-2.34,62.53-5.91.71-.12,1.9-.74,1.89-1.08-.05-1.32-1.28-.94-2.07-.91-17.64.77-35.27,1.6-52.91,2.31-1.27.05-3.69.94-3.72-.83s2.48-1.33,3.94-1.46c17.84-1.62,35.69-3.18,53.55-4.78.45-.05.86-.53,1.29-.79-.43-.24-.88-.68-1.3-.67q-27.67.67-55.35,1.41c-.86,0-2.18.33-2.23-1s1.27-1,2.14-1.1q27.74-2,55.47-4.09c.45,0,.86-.59,1.3-.9a4.14,4.14,0,0,0-1.38-.6q-18.09,0-36.2,0c-.26,0-12.11.29-18.16.25-1.12,0-2.87.44-2.87-1.23s1.75-1.06,2.77-1.1c17.87-.74,35.73-1.43,53.6-2.19.74,0,2.11-.7,2.09-1-.12-1.3-1.32-.81-2.11-.85-12.57-.54-25.14-1.45-37.71-1.45-9.81,0-19.84-1.93-29.41,1.78-4.91,1.91-8.48,6.6-14.09,7.08-11.63,1-23.28.77-34.95.59a565.09,565.09,0,0,1-91.71-8.67c-4.73-.86-9.41-.73-12.49,3.58-2.94,4.14-3.31,8.88-.6,13.26,3.55,5.72,9.36,5.7,15.13,4.92,35.93-4.84,72-8.25,108.28-6.69C261.64,214.09,270.13,214.17,277.06,220Zm11.84-1.36c1,.08,1.85,2.65,2.76,4.08a7.15,7.15,0,0,1-2.39.45c-5-.82-9.73-2.09-11.66-7.82C280.56,219.65,284.87,218.29,288.9,218.6Zm-143.18-.09c-4.43,1.49-8.68,1.41-14.27-2.43A34.25,34.25,0,0,0,145.72,218.51Z"/><path class="cls-1" d="M131.45,216.08a34.25,34.25,0,0,0,14.27,2.43C141.29,220,137,219.92,131.45,216.08Z"/><path class="cls-1" d="M289.27,223.13c-5-.82-9.73-2.09-11.66-7.82,2.95,4.34,7.26,3,11.29,3.29,1,.08,1.85,2.65,2.76,4.08A7.15,7.15,0,0,1,289.27,223.13Z"/><path d="M327.61.47c5,1.08,7.85,6.25,6.74,12s-6,8.73-12.32,8c-27-2.91-58.22-6.3-85.47-5.8-18.14.34-10.92,2-18.07,6.34-3.77,2.26-9.93.71-15,.57q-22.2-.62-44.39-1.52c-16-.65-32.07-.87-47.27-6.84-2.93-1.15-6-2.57-5.76-7.1C106,6,106,6,106,5.88c0-.42.16-1,.43-1h-.06C108.69,1.9,111.56,3,114,3c25.93-.12,51.89.42,77.8-.3,21.9-.62,43.61,2.09,65.43,2.17C275.93,5,294.53,3.05,313.1.94,317.91.38,322.77-.58,327.61.47Z"/><path class="cls-1" d="M332.31,8.45C328.55,2.08,319.3,3,315.69,3,319.43,1.72,330.26,1.05,332.31,8.45Z"/><path class="cls-1" d="M215,6.14s-97.78-1.37-101.2-.45,2.34,1.59,14.18,2,87-1.59,87-1.59Z"/></g></g></svg>