<svg xmlns="http://www.w3.org/2000/svg" viewBox="0 0 259.21 447.56"><defs><style>.cls-1{fill:#faa78c;}.cls-2{fill:#ed775a;}.cls-3{fill:#241f55;}.cls-4{fill:#ccc;}.cls-5{fill:#fff;}.cls-6{fill:#c75946;}.cls-7{fill:#ff4066;}</style></defs><g id="Layer_2" data-name="Layer 2"><g id="Ñëîé_1" data-name="Ñëîé 1"><path class="cls-1" d="M13.29,139.3c12.08,11.71,27.28,22.82,40,31.81a2.47,2.47,0,0,0,3.86-2.23c0-3,.13-26.34.13-32.87a4.19,4.19,0,0,0-1.73-2.91c-16.19-9.33-32.72-20.28-49.7-29a3.39,3.39,0,0,0-4.93,2.08C-2.4,119.58,3.55,129.85,13.29,139.3Z"/><path class="cls-1" d="M206.15,447.56H92.25c-1.13-14-4.34-49.94-11.48-73.79-6.91-23.07-17-47.41-15.28-72.28,1.55-22.14,60.28-21.07,74.63-20.91,13.36.15,29.3,1.59,43.44,6.8,16.71,6.16,37.36,32.31,40.17,54.2,2,15.86-3.34,22.72-11.28,38.07C205.17,393.73,204.76,427.45,206.15,447.56Z"/><path class="cls-2" d="M65.29,314c6.31-.53,15.18-1.35,22.19-1.15,29.09.87,52.26,15.33,79.32,11a8.9,8.9,0,0,0,6.7-4.71c4.37-8.47,10-16.68,19.45-26.54a39.42,39.42,0,0,0-9.39-5.21c-14.14-5.21-30.09-6.65-43.45-6.8-14.35-.16-73.07-1.23-74.61,20.91A112.13,112.13,0,0,0,65.29,314Z"/><rect class="cls-3" x="49.54" y="0.02" width="158.5" height="308.65" rx="10.43" transform="translate(257.57 308.7) rotate(180)"/><rect class="cls-4" x="55.79" y="6.28" width="145.98" height="296.14" rx="4.17" transform="translate(257.57 308.7) rotate(180)"/><path class="cls-3" d="M106.5,0h44.57a4.17,4.17,0,0,1,4.17,4.17V18.79a0,0,0,0,1,0,0H102.33a0,0,0,0,1,0,0V4.17A4.17,4.17,0,0,1,106.5,0Z" transform="translate(257.57 18.79) rotate(180)"/><path class="cls-5" d="M59.69,302.17V14.37a4.17,4.17,0,0,1,4.17-4.17h38.47V6.28H60a4.17,4.17,0,0,0-4.17,4.17v287.8a4.16,4.16,0,0,0,3.92,4.14C59.71,302.32,59.69,302.25,59.69,302.17Z"/><path class="cls-5" d="M110.4,22.72H155a4.18,4.18,0,0,0,4.17-4.18V10.2H201.5a1.9,1.9,0,0,1,.25,0,4.15,4.15,0,0,0-4.14-3.95H155.24v8.34a4.17,4.17,0,0,1-4.17,4.17H106.5l-.25,0A4.17,4.17,0,0,0,110.4,22.72Z"/><path class="cls-1" d="M179.72,392.9c13.74,2.45,26-5.35,36.58-22.07,8-12.72,26.17-48.21,33.37-63.89,6.45-14.05,11.79-23.33,8.58-39-3.62-17.73-17.45-51.63-24.8-68.38-3.07-7-5.89-29.12-8.83-37.89-1.11-3.31-4.2-5-7.82-3C209.23,163,206,177.74,206,187.06c0,14.07,7.11,43.26,9.05,52.44,1.38,6.54,2.94,15.82,1.21,22.16-2.08,7.6-8,15.41-13.84,20.57-18.7,16.62-44.32,37.41-48.73,63.95C150.75,364.11,163.33,390,179.72,392.9Z"/><path class="cls-1" d="M25,267.79C28,272,33.49,276.9,37.13,280.62a307,307,0,0,0,24.55,23,1.84,1.84,0,0,0,2.53-.18c5.65-9,2.48-20.73-1.22-29.51-4.68-11.11-13-20.18-21.4-28.44-1.33-1.31-5.58-5.2-7.19-6.68s-2.12-.54-3.3,1.09a82.08,82.08,0,0,0-7.77,13.36,18.85,18.85,0,0,0-.77,2.24A15.19,15.19,0,0,0,25,267.79Z"/><path class="cls-2" d="M22.25,257.57a4.54,4.54,0,0,1,.3-.52c5.81-7.69,19-1.53,24.74,3.11,5,4,10.27,7.4,14.85,11.89-4.8-10.23-12.66-18.75-20.54-26.52-1.35-1.32-5.58-5.19-7.2-6.67s-2.13-.55-3.3,1.07a82.17,82.17,0,0,0-7.77,13.37,18.52,18.52,0,0,0-.78,2.24A13.61,13.61,0,0,0,22.25,257.57Z"/><path class="cls-1" d="M22.6,224.36c.48,5.22,5.7,10.06,9,13.63,2.3,2.46,14.09,14.52,17.88,17.68,4.24,3.54,9.8,9.26,12.17,11.65,2.83,2.85,5.74-1.19,6.34-3.13a31.37,31.37,0,0,0-.28-17.75c-1.91-5.49-6.4-11.89-10.22-16.93-1.88-2.49-8-10.7-8-10.73V186.56a140.66,140.66,0,0,0-14,13.84c-3.73,4.36-8.37,10.79-10.19,13.43A15.54,15.54,0,0,0,22.6,224.36Z"/><rect class="cls-5" x="70.29" y="95.85" width="117" height="117"/><polygon class="cls-3" points="85.89 103.65 78.09 103.65 78.09 111.45 78.09 142.65 78.09 150.45 85.89 150.45 109.28 150.45 109.28 142.65 85.89 142.65 85.89 111.45 117.08 111.45 117.08 134.85 124.88 134.85 124.88 111.45 124.88 103.65 117.08 103.65 85.89 103.65"/><rect class="cls-3" x="93.69" y="119.25" width="15.6" height="15.6"/><rect class="cls-3" x="117.08" y="142.65" width="7.8" height="7.8"/><rect class="cls-3" x="148.28" y="119.25" width="15.6" height="15.6"/><rect class="cls-3" x="148.28" y="142.65" width="15.6" height="7.8"/><polygon class="cls-3" points="171.68 103.65 140.48 103.65 132.68 103.65 132.68 111.45 132.68 150.45 140.48 150.45 140.48 111.45 171.68 111.45 171.68 150.45 179.48 150.45 179.48 111.45 179.48 103.65 171.68 103.65"/><rect class="cls-3" x="117.08" y="158.25" width="7.8" height="23.4"/><rect class="cls-3" x="93.69" y="173.85" width="15.6" height="15.6"/><polygon class="cls-3" points="117.08 197.25 85.89 197.25 85.89 166.05 109.28 166.05 109.28 158.25 85.89 158.25 78.09 158.25 78.09 166.05 78.09 197.25 78.09 205.05 85.89 205.05 117.08 205.05 124.88 205.05 124.88 197.25 124.88 189.45 117.08 189.45 117.08 197.25"/><rect class="cls-3" x="163.88" y="158.25" width="7.8" height="7.8"/><rect class="cls-3" x="156.08" y="166.05" width="7.8" height="7.8"/><rect class="cls-3" x="132.68" y="158.25" width="15.6" height="7.8"/><rect class="cls-3" x="171.68" y="166.05" width="7.8" height="15.6"/><polygon class="cls-3" points="148.28 181.65 148.28 189.45 156.08 189.45 156.08 197.25 163.88 197.25 163.88 189.45 163.88 181.65 156.08 181.65 156.08 173.85 148.28 173.85 148.28 181.65"/><polygon class="cls-3" points="171.68 205.05 179.48 205.05 179.48 197.25 179.48 189.45 171.68 189.45 171.68 197.25 163.88 197.25 163.88 205.05 171.68 205.05"/><rect class="cls-3" x="148.28" y="197.25" width="7.8" height="7.8"/><rect class="cls-3" x="132.68" y="197.25" width="7.8" height="7.8"/><rect class="cls-3" x="132.68" y="173.85" width="7.8" height="15.6"/><path class="cls-2" d="M228.92,189.13a17.24,17.24,0,0,1-4.07-.53,6.55,6.55,0,0,1-4.18-4.09,58.43,58.43,0,0,1-2.22-11.78c-.68-5.66-.69-9.88,0-13,.41-2,1.32-4.66,4.52-5.32a1.1,1.1,0,1,1,.44,2.16c-1.29.27-2.26,1-2.8,3.61-.6,2.85-.58,6.83.06,12.17a57.6,57.6,0,0,0,2.14,11.43,4.43,4.43,0,0,0,2.59,2.63,13.63,13.63,0,0,0,5.19.36,1.1,1.1,0,0,1,.28,2.19A15.32,15.32,0,0,1,228.92,189.13Z"/><path class="cls-2" d="M65.07,304.23a1.13,1.13,0,0,1-.76-.3,1.1,1.1,0,0,1,0-1.56c1-1,.78-4.45-.06-6.12-3.75-7.54-6.33-10.75-12.16-16.57-1.47-1.46-4.85-2.84-7.46-1.16a17.51,17.51,0,0,0-4.82,4.56A1.1,1.1,0,0,1,38,281.79a19.61,19.61,0,0,1,5.41-5.12c3.67-2.37,8.18-.58,10.22,1.45,5.93,5.91,8.72,9.39,12.58,17.15,1.1,2.21,1.53,6.67-.31,8.62A1.1,1.1,0,0,1,65.07,304.23Z"/><path class="cls-2" d="M65.82,268.79a1.05,1.05,0,0,1-.75-.31,1.1,1.1,0,0,1,0-1.56c1-1,.78-4.45-.06-6.12-3.75-7.54-6.32-10.75-12.16-16.57-1.47-1.46-4.85-2.84-7.46-1.16a17.22,17.22,0,0,0-4.82,4.56,1.1,1.1,0,1,1-1.79-1.28,19.4,19.4,0,0,1,5.42-5.13c3.66-2.37,8.17-.58,10.21,1.45,5.93,5.91,8.72,9.4,12.58,17.15,1.1,2.21,1.53,6.67-.31,8.62A1.11,1.11,0,0,1,65.82,268.79Z"/><path class="cls-2" d="M258.25,267.9c-.46-2.2-1.06-4.68-1.81-7.33-1.33,1.48-1.21,6.19-1.16,9.25.07,4.74-.82,10.16-3.88,18.09-8,20.76-26.94,44.63-36,56.59-9.58,12.68-24.38,28.31-25.57,47.82-1.13,18.38,4.23,35.59,4.59,55.23h11.7c-1.4-20.1-1-53.81,6.31-67.89,3.49-6.77,6.49-11.89,8.58-16.85,9-15.94,22.61-42.79,28.63-55.87C256.12,292.89,261.46,283.6,258.25,267.9Z"/><path class="cls-6" d="M153.73,347.65l-.24,0a1.46,1.46,0,0,1-1.21-1.69c4.17-25.12,26.82-45.08,45-61.11l4.18-3.7c5.09-4.52,11.28-12.11,13.4-19.85,1.87-6.85-.46-17.86-1.23-21.47-.3-1.43-.73-3.33-1.23-5.58-2.74-12.28-7.85-35.13-7.85-47.17a1.48,1.48,0,1,1,3,0c0,11.72,5,34.36,7.77,46.53.51,2.26.94,4.18,1.24,5.61,1.39,6.57,3,16.1,1.19,22.85-2.29,8.37-8.88,16.48-14.28,21.28l-4.2,3.71c-17.85,15.72-40.06,35.29-44.06,59.38A1.47,1.47,0,0,1,153.73,347.65Z"/><polygon class="cls-7" points="173.96 241 215.44 241 215.44 199.52 221.69 199.52 221.69 247.26 173.96 247.26 173.96 241"/><polygon class="cls-7" points="42.13 199.52 42.13 241 83.61 241 83.61 247.26 35.87 247.26 35.87 199.52 42.13 199.52"/><polygon class="cls-7" points="173.96 61.44 221.69 61.44 221.69 109.17 215.44 109.17 215.44 67.69 173.96 67.69 173.96 61.44"/><polygon class="cls-7" points="83.61 61.44 83.61 67.69 42.13 67.69 42.13 109.17 35.87 109.17 35.87 61.44 83.61 61.44"/></g></g></svg>